<svg data-v-423bf9ae="" xmlns="http://www.w3.org/2000/svg" viewBox="0 0 397.6836166563262 163" class="iconAbove"><!----><!----><defs data-v-423bf9ae=""><linearGradient data-v-423bf9ae="" gradientTransform="rotate(25)" id="1d7007b5-68d6-4316-8724-8a9834f6a977" x1="0%" y1="0%" x2="100%" y2="0%"><stop data-v-423bf9ae="" offset="0%" style="stop-color: rgb(74, 73, 172); stop-opacity: 1;"></stop><stop data-v-423bf9ae="" offset="100%" style="stop-color: rgb(5, 5, 32); stop-opacity: 1;"></stop></linearGradient></defs><g data-v-423bf9ae="" id="87aed3a5-0cfc-4a4c-8a2a-07fb3b475cca" fill="url(#1d7007b5-68d6-4316-8724-8a9834f6a977)" transform="matrix(5.649717575005543,0,0,5.649717575005543,-0.7344567103711483,83.05650069814884)"><path d="M0.13 5.77L3.22 5.77L3.22 14.08L4.87 14.08L4.87 5.77L7.98 5.77L7.98 4.28L0.13 4.28ZM8.12 14.08L9.84 14.08L10.78 11.87L15.72 11.87L16.66 14.08L18.42 14.08L14.14 4.28L12.45 4.28ZM11.40 10.40L13.24 6.05L15.09 10.40ZM18.93 10.33C18.93 12.60 20.36 14.15 22.50 14.15C23.69 14.15 24.58 13.68 25.12 12.81L25.12 14.08L26.73 14.08L26.73 3.70L25.12 3.70L25.12 7.92C24.57 7.06 23.67 6.57 22.47 6.57C20.37 6.57 18.93 8.09 18.93 10.33ZM20.54 10.39C20.55 8.96 21.49 7.94 22.83 7.94C24.18 7.94 25.12 8.95 25.12 10.39C25.12 11.80 24.18 12.81 22.83 12.81C21.48 12.81 20.55 11.80 20.54 10.39ZM28.48 10.33C28.48 12.60 29.90 14.15 32.05 14.15C33.24 14.15 34.13 13.68 34.66 12.81L34.66 14.08L36.27 14.08L36.27 3.70L34.66 3.70L34.66 7.92C34.12 7.06 33.22 6.57 32.02 6.57C29.92 6.57 28.48 8.09 28.48 10.33ZM30.09 10.39C30.10 8.96 31.04 7.94 32.38 7.94C33.73 7.94 34.66 8.95 34.66 10.39C34.66 11.80 33.73 12.81 32.38 12.81C31.02 12.81 30.10 11.80 30.09 10.39ZM38.82 14.08L40.47 14.08L40.47 10.07L44.93 10.07L44.93 8.60L40.47 8.60L40.47 5.77L45.39 5.77L45.40 4.28L38.82 4.28ZM46.63 4.51C46.63 5.07 47.04 5.47 47.57 5.47C48.10 5.47 48.51 5.07 48.51 4.51C48.51 3.93 48.10 3.53 47.57 3.53C47.04 3.53 46.63 3.93 46.63 4.51ZM46.77 14.08L48.37 14.08L48.37 6.64L46.77 6.64ZM50.13 11.84C50.13 13.16 51.14 14.15 52.75 14.15C53.83 14.15 54.68 13.83 55.22 13.17L55.22 14.08L56.80 14.08L56.78 9.20C56.77 7.56 55.69 6.58 53.77 6.58C52.36 6.58 51.60 6.90 50.57 7.52L51.23 8.64C51.97 8.13 52.71 7.88 53.42 7.88C54.60 7.88 55.20 8.44 55.20 9.38L55.20 9.60L52.95 9.60C51.16 9.62 50.13 10.49 50.13 11.84ZM51.65 11.77C51.65 11.06 52.14 10.78 53.19 10.78L55.20 10.78L55.20 11.47C55.12 12.28 54.24 12.88 53.09 12.88C52.19 12.88 51.65 12.45 51.65 11.77ZM58.95 14.08L60.56 14.08L60.56 10.19C60.69 8.92 61.64 8.04 63.14 8.12L63.14 6.58C61.96 6.58 61.07 7.11 60.56 8.12L60.56 6.64L58.95 6.64ZM63.85 11.84C63.85 13.16 64.86 14.15 66.47 14.15C67.55 14.15 68.40 13.83 68.94 13.17L68.94 14.08L70.52 14.08L70.50 9.20C70.49 7.56 69.41 6.58 67.49 6.58C66.08 6.58 65.32 6.90 64.29 7.52L64.95 8.64C65.69 8.13 66.43 7.88 67.14 7.88C68.32 7.88 68.92 8.44 68.92 9.38L68.92 9.60L66.67 9.60C64.88 9.62 63.85 10.49 63.85 11.84ZM65.37 11.77C65.37 11.06 65.86 10.78 66.91 10.78L68.92 10.78L68.92 11.47C68.84 12.28 67.96 12.88 66.81 12.88C65.91 12.88 65.37 12.45 65.37 11.77Z"></path></g><defs data-v-423bf9ae=""><linearGradient data-v-423bf9ae="" gradientTransform="rotate(25)" id="d1438500-0b1d-4df4-8544-e63428eebf6a" x1="0%" y1="0%" x2="100%" y2="0%"><stop data-v-423bf9ae="" offset="0%" style="stop-color: rgb(74, 73, 172); stop-opacity: 1;"></stop><stop data-v-423bf9ae="" offset="100%" style="stop-color: rgb(5, 5, 32); stop-opacity: 1;"></stop></linearGradient></defs><g data-v-423bf9ae="" id="cbc1d152-3fa9-42b1-8f74-70fada2a1c16" transform="matrix(3.2889792729688745,0,0,3.2889792729688745,39.1052994274485,-136.58065421038094)" stroke="none" fill="url(#d1438500-0b1d-4df4-8544-e63428eebf6a)"><path d="M87.82 52.572c-.331-.132.066-.862 0-1.725-.066-.862-.465-1.062-1.658-1.193-1.193-.133-5.703-1.327-6.433-1.459-.73-.132-4.931-2.309-8.556-4.51-1.941-1.177-4.511-1.061-6.367-1.326-1.857-.265-5.969-.531-12.336-.597-6.368-.066-9.707.526-10.418.709-1.699.438-5.45 5.483-7.954 5.989-3.95.798-23.189 2.489-23.486 2.847-.621.752-.78 3.819-.796 4.482-.02.808-.087 2.46.498 2.91.754.58 1.368.682 1.368.682.444.083 2.908.594 5.699 1.174.488 2.965 2.785 5.21 5.549 5.21 2.022 0 3.792-1.205 4.79-3.01.139.038.267.072.377.098.52.12.995-.63 1.194.132.132.507 2.132.482 2.487.497.698.029 2.454-.098 3.316-.014.862.085 3.051-.217 3.449-.748.398-.53 1.187-2.305 1.494-2.917.306-.609 2.064-2.483 2.711-2.911 1.153-.764 2.228-.538 2.825-.443.608.099 3.051 1.065 3.35 3.586.218 1.844.342 3.414.342 3.414s8.776-1.259 14.547-1.989c5.771-.729 7.693-.729 7.693-.729s.075-.072.202-.205c.539-.56 1.749-2.024 2.61-3.666 1.06-2.017.496-.991.951-1.783.345-.598.533-.771.974-.949.565-.229 2.164-.066 2.989 1.587.462.928.829 2.662 1.294 2.495.533-.19 4.907-1.789 5.504-2.661.598-.871.598.009 1.062-.786.464-.798 1.06-2.059.729-2.191zm-34.215-2.727l-17.642-1.724s6.046-4.998 6.337-5.169c.286-.168 14.32.451 14.225.725-.181.504-1.526 3.184-2.123 4.444-.597 1.259-.797 1.724-.797 1.724zm18.911-1.443s-1.144.125-1.642.224c-.497.099-3.431.547-4.128.696s-2.984.298-3.481.349c-.498.05-4.304.249-4.304.249s-4.551.149-4.451 0c.1-.15 2.885-6.118 2.885-6.118h8.357s.386.226 1.392.796c1.093.618 4.278 2.263 5.174 2.81.895.546.198.994.198.994z"></path><path d="M11.463 52.491l20.165 2.82-.169 4.069s-20.19-3.259-20.202-3.427c-.065-.976.206-3.462.206-3.462z"></path><path d="M20.759 55.721c-.053.764-1.355 1.185-2.894.936l-3.604-.585c-1.539-.249-2.75-1.077-2.692-1.841.059-.763 1.366-1.183 2.905-.934l3.581.581c1.54.249 2.756 1.078 2.704 1.843zM31.111 57.242c0 .89-1.259 1.413-2.798 1.164l-4.223-.686c-1.539-.249-2.75-1.101-2.691-1.893.059-.792 1.373-1.276 2.919-1.077l3.982.512c1.546.2 2.811 1.091 2.811 1.98zM43.106 56.354c-3.12 0-5.649 2.856-5.649 6.383 0 3.525 2.529 6.384 5.649 6.384s5.649-2.858 5.649-6.384c0-3.527-2.529-6.383-5.649-6.383zm1.539 10.213c-1.429 0-2.587-1.663-2.587-3.715 0-2.051 1.158-3.714 2.587-3.714 1.428 0 2.586 1.663 2.586 3.714-.001 2.052-1.158 3.715-2.586 3.715zM75.117 54.478c-2.602 0-4.71 2.142-4.71 4.784s2.108 4.784 4.71 4.784 4.711-2.143 4.711-4.784c0-2.643-2.109-4.784-4.711-4.784zm1.893 7.844c-1.135 0-2.056-1.419-2.056-3.17 0-1.75.921-3.168 2.056-3.168 1.136 0 2.056 1.418 2.056 3.168-.001 1.751-.92 3.17-2.056 3.17z"></path></g><!----></svg>