<svg data-v-423bf9ae="" xmlns="http://www.w3.org/2000/svg" viewBox="0 0 697 90" class="iconLeft"><!----><!----><defs data-v-423bf9ae=""><linearGradient data-v-423bf9ae="" gradientTransform="rotate(25)" id="c249e439-78b9-40bd-adff-f7e01f46b072" x1="0%" y1="0%" x2="100%" y2="0%"><stop data-v-423bf9ae="" offset="0%" style="stop-color: rgb(182, 109, 255); stop-opacity: 1;"></stop><stop data-v-423bf9ae="" offset="100%" style="stop-color: rgb(36, 3, 73); stop-opacity: 1;"></stop></linearGradient></defs><g data-v-423bf9ae="" id="87dd9d69-c33f-44f2-b30a-f917971dde99" fill="url(#c249e439-78b9-40bd-adff-f7e01f46b072)" transform="matrix(5.424954586220476,0,0,5.424954586220476,268.88218325523417,-1.7088601885050352)"><path d="M2.58 3.78L1.48 3.78L1.48 14L2.58 14ZM12.17 3.78L4.27 3.78L4.27 4.79L7.63 4.79L7.63 14L8.76 14L8.76 4.79L12.17 4.79ZM17.85 9.84L12.38 9.84L12.38 10.70L17.85 10.70ZM27.45 14L28.62 14L24.53 3.78L23.21 3.78L19.01 14L20.15 14L21.15 11.49L26.49 11.49ZM21.56 10.47L23.87 4.72L26.10 10.47ZM35.74 3.08L35.74 7.66C35.10 6.94 34.22 6.58 33.14 6.58C31.09 6.58 29.46 8.20 29.46 10.33C29.46 12.52 31.08 14.14 33.15 14.14C34.34 14.14 35.24 13.69 35.88 12.87L36.08 14L36.75 14L36.75 3.08ZM33.18 13.23C31.75 13.23 30.52 11.97 30.52 10.33C30.52 8.72 31.75 7.49 33.18 7.49C34.38 7.49 35.24 8.11 35.71 9.03L35.71 11.68C35.22 12.63 34.40 13.23 33.18 13.23ZM44.95 3.08L44.95 7.66C44.31 6.94 43.43 6.58 42.35 6.58C40.31 6.58 38.67 8.20 38.67 10.33C38.67 12.52 40.29 14.14 42.36 14.14C43.55 14.14 44.45 13.69 45.09 12.87L45.29 14L45.96 14L45.96 3.08ZM42.39 13.23C40.96 13.23 39.73 11.97 39.73 10.33C39.73 8.72 40.96 7.49 42.39 7.49C43.60 7.49 44.45 8.11 44.93 9.03L44.93 11.68C44.44 12.63 43.61 13.23 42.39 13.23ZM54.31 4.73L54.31 3.78L48.68 3.78L48.68 14L49.77 14L49.77 9.51L54.24 9.51L54.24 8.55L49.77 8.55L49.77 4.73ZM56.69 5.10C57.12 5.10 57.48 4.73 57.48 4.27C57.48 3.85 57.12 3.50 56.69 3.50C56.24 3.50 55.89 3.85 55.89 4.27C55.89 4.73 56.24 5.10 56.69 5.10ZM57.18 6.72L56.13 6.72L56.13 14L57.18 14ZM62.37 6.58C60.65 6.58 59.43 7.56 59.33 9.02L60.33 9.02C60.38 8.18 61.18 7.49 62.33 7.49C63.62 7.49 64.37 8.16 64.37 9.67L64.37 9.94L62.10 9.93C60.19 9.93 59.04 10.79 59.04 12.01C59.04 13.27 60.09 14.14 61.43 14.14C62.72 14.14 63.74 13.55 64.50 12.96L64.71 14L65.39 14L65.39 9.67C65.39 7.70 64.30 6.58 62.37 6.58ZM60.07 12.00C60.07 11.19 60.79 10.79 62.12 10.79L64.37 10.79L64.37 12.11C63.62 12.70 62.66 13.22 61.64 13.22C60.79 13.22 60.07 12.78 60.07 12.00ZM71.25 6.58C70.48 6.58 69.61 6.97 68.67 7.76L68.49 6.72L67.75 6.72L67.75 14L68.78 14L68.78 8.75C69.69 7.98 70.43 7.59 71.05 7.59C71.37 7.59 71.65 7.64 71.89 7.73L72.02 6.71C71.81 6.64 71.55 6.58 71.25 6.58ZM75.87 6.58C74.14 6.58 72.93 7.56 72.83 9.02L73.82 9.02C73.88 8.18 74.68 7.49 75.82 7.49C77.11 7.49 77.87 8.16 77.87 9.67L77.87 9.94L75.60 9.93C73.68 9.93 72.53 10.79 72.53 12.01C72.53 13.27 73.58 14.14 74.93 14.14C76.22 14.14 77.24 13.55 77.99 12.96L78.20 14L78.89 14L78.89 9.67C78.89 7.70 77.80 6.58 75.87 6.58ZM73.57 12.00C73.57 11.19 74.28 10.79 75.61 10.79L77.87 10.79L77.87 12.11C77.11 12.70 76.16 13.22 75.14 13.22C74.28 13.22 73.57 12.78 73.57 12.00Z"></path></g><defs data-v-423bf9ae=""><linearGradient data-v-423bf9ae="" gradientTransform="rotate(25)" id="159b9e7c-441b-4d57-b764-76c5cbe91d68" x1="0%" y1="0%" x2="100%" y2="0%"><stop data-v-423bf9ae="" offset="0%" style="stop-color: rgb(182, 109, 255); stop-opacity: 1;"></stop><stop data-v-423bf9ae="" offset="100%" style="stop-color: rgb(36, 3, 73); stop-opacity: 1;"></stop></linearGradient></defs><g data-v-423bf9ae="" id="35eb0626-b67d-4dc9-97f4-d70af1dd7f6e" transform="matrix(3.2889792729688745,0,0,3.2889792729688745,-31.89469294315697,-136.58065421038094)" stroke="none" fill="url(#159b9e7c-441b-4d57-b764-76c5cbe91d68)"><path d="M87.82 52.572c-.331-.132.066-.862 0-1.725-.066-.862-.465-1.062-1.658-1.193-1.193-.133-5.703-1.327-6.433-1.459-.73-.132-4.931-2.309-8.556-4.51-1.941-1.177-4.511-1.061-6.367-1.326-1.857-.265-5.969-.531-12.336-.597-6.368-.066-9.707.526-10.418.709-1.699.438-5.45 5.483-7.954 5.989-3.95.798-23.189 2.489-23.486 2.847-.621.752-.78 3.819-.796 4.482-.02.808-.087 2.46.498 2.91.754.58 1.368.682 1.368.682.444.083 2.908.594 5.699 1.174.488 2.965 2.785 5.21 5.549 5.21 2.022 0 3.792-1.205 4.79-3.01.139.038.267.072.377.098.52.12.995-.63 1.194.132.132.507 2.132.482 2.487.497.698.029 2.454-.098 3.316-.014.862.085 3.051-.217 3.449-.748.398-.53 1.187-2.305 1.494-2.917.306-.609 2.064-2.483 2.711-2.911 1.153-.764 2.228-.538 2.825-.443.608.099 3.051 1.065 3.35 3.586.218 1.844.342 3.414.342 3.414s8.776-1.259 14.547-1.989c5.771-.729 7.693-.729 7.693-.729s.075-.072.202-.205c.539-.56 1.749-2.024 2.61-3.666 1.06-2.017.496-.991.951-1.783.345-.598.533-.771.974-.949.565-.229 2.164-.066 2.989 1.587.462.928.829 2.662 1.294 2.495.533-.19 4.907-1.789 5.504-2.661.598-.871.598.009 1.062-.786.464-.798 1.06-2.059.729-2.191zm-34.215-2.727l-17.642-1.724s6.046-4.998 6.337-5.169c.286-.168 14.32.451 14.225.725-.181.504-1.526 3.184-2.123 4.444-.597 1.259-.797 1.724-.797 1.724zm18.911-1.443s-1.144.125-1.642.224c-.497.099-3.431.547-4.128.696s-2.984.298-3.481.349c-.498.05-4.304.249-4.304.249s-4.551.149-4.451 0c.1-.15 2.885-6.118 2.885-6.118h8.357s.386.226 1.392.796c1.093.618 4.278 2.263 5.174 2.81.895.546.198.994.198.994z"></path><path d="M11.463 52.491l20.165 2.82-.169 4.069s-20.19-3.259-20.202-3.427c-.065-.976.206-3.462.206-3.462z"></path><path d="M20.759 55.721c-.053.764-1.355 1.185-2.894.936l-3.604-.585c-1.539-.249-2.75-1.077-2.692-1.841.059-.763 1.366-1.183 2.905-.934l3.581.581c1.54.249 2.756 1.078 2.704 1.843zM31.111 57.242c0 .89-1.259 1.413-2.798 1.164l-4.223-.686c-1.539-.249-2.75-1.101-2.691-1.893.059-.792 1.373-1.276 2.919-1.077l3.982.512c1.546.2 2.811 1.091 2.811 1.98zM43.106 56.354c-3.12 0-5.649 2.856-5.649 6.383 0 3.525 2.529 6.384 5.649 6.384s5.649-2.858 5.649-6.384c0-3.527-2.529-6.383-5.649-6.383zm1.539 10.213c-1.429 0-2.587-1.663-2.587-3.715 0-2.051 1.158-3.714 2.587-3.714 1.428 0 2.586 1.663 2.586 3.714-.001 2.052-1.158 3.715-2.586 3.715zM75.117 54.478c-2.602 0-4.71 2.142-4.71 4.784s2.108 4.784 4.71 4.784 4.711-2.143 4.711-4.784c0-2.643-2.109-4.784-4.711-4.784zm1.893 7.844c-1.135 0-2.056-1.419-2.056-3.17 0-1.75.921-3.168 2.056-3.168 1.136 0 2.056 1.418 2.056 3.168-.001 1.751-.92 3.17-2.056 3.17z"></path></g><!----></svg>